<?xml version="1.0" standalone="no"?><!DOCTYPE svg PUBLIC "-//W3C//DTD SVG 1.1//EN" "http://www.w3.org/Graphics/SVG/1.1/DTD/svg11.dtd"><svg t="1590399576155" class="icon" viewBox="0 0 1024 1024" version="1.1" xmlns="http://www.w3.org/2000/svg" p-id="2111" xmlns:xlink="http://www.w3.org/1999/xlink" width="200" height="200"><defs><style type="text/css"></style></defs><path d="M819.9168 266.8544l-66.3552-66.3552a17.1008 17.1008 0 0 0-24.1664 0L509.44 420.5056 289.3824 200.4992a17.1008 17.1008 0 0 0-24.1152 0L198.912 266.8544a17.1008 17.1008 0 0 0 0 24.1152l220.0064 220.0576-220.0064 219.9552a17.1008 17.1008 0 0 0 0 24.1664l66.3552 66.3552c6.656 6.656 17.4592 6.656 24.1152 0l220.0576-220.0064 219.9552 220.0064c6.656 6.656 17.5104 6.656 24.1664 0l66.3552-66.3552a17.1008 17.1008 0 0 0 0-24.1664l-220.0064-219.9552 220.0064-220.0576a17.1008 17.1008 0 0 0 0-24.1152" fill="#C9C9C9" p-id="2112"></path></svg>