<?xml version="1.0" standalone="no"?><!DOCTYPE svg PUBLIC "-//W3C//DTD SVG 1.1//EN" "http://www.w3.org/Graphics/SVG/1.1/DTD/svg11.dtd"><svg t="1590399626767" class="icon" viewBox="0 0 1024 1024" version="1.1" xmlns="http://www.w3.org/2000/svg" p-id="2230" xmlns:xlink="http://www.w3.org/1999/xlink" width="200" height="200"><defs><style type="text/css"></style></defs><path d="M153.6 153.6m38.4 0l640 0q38.4 0 38.4 38.4l0 665.6q0 38.4-38.4 38.4l-640 0q-38.4 0-38.4-38.4l0-665.6q0-38.4 38.4-38.4Z" fill="#FFFFFF" p-id="2231"></path><path d="M848.3584 140.8H182.4A35.2 35.2 0 0 0 147.2 176v696.2688a35.2 35.2 0 0 0 35.2 35.2h665.9328a35.2 35.2 0 0 0 35.2-35.2V176A35.2 35.2 0 0 0 848.3584 140.8zM182.4 160h665.9456c8.832 0 16 7.168 16 16v696.2688c0 8.832-7.168 16-16 16H182.4c-8.832 0-16-7.168-16-16V176c0-8.832 7.1552-16 16-16z" fill="#CCCCCC" p-id="2232"></path><path d="M545.8176 321.5616h231.2064" fill="#FFFFFF" p-id="2233"></path><path d="M777.024 302.3616v38.4H545.8176v-38.4z" fill="#CCCCCC" p-id="2234"></path><path d="M545.8176 422.848h117.9008" fill="#FFFFFF" p-id="2235"></path><path d="M663.7184 403.648v38.4h-117.9008v-38.4z" fill="#CCCCCC" p-id="2236"></path><path d="M545.8176 524.1344h231.2064" fill="#FFFFFF" p-id="2237"></path><path d="M777.024 504.9344v38.4H545.8176v-38.4z" fill="#CCCCCC" p-id="2238"></path><path d="M545.8176 625.408H717.44" fill="#FFFFFF" p-id="2239"></path><path d="M717.44 606.2208v38.4H545.8176v-38.4z" fill="#CCCCCC" p-id="2240"></path><path d="M545.8176 726.7072h231.2064" fill="#FFFFFF" p-id="2241"></path><path d="M777.024 707.5072v38.4H545.8176v-38.4z" fill="#CCCCCC" p-id="2242"></path><path d="M147.3664 290.944v466.3808L547.84 812.9792a14.6944 14.6944 0 0 0 16.7296-14.5664V249.856A14.72 14.72 0 0 0 547.84 235.2768L147.3664 290.9568z" fill="#3A74D1" p-id="2243"></path><path d="M308.8256 640.1536l32.832-133.5808 35.648 136.32 44.8896 1.792 59.392-247.7056-47.1552 4.2624-34.1504 142.1824-34.6624-135.9616-49.6128 4.48-28.6976 129.92-22.3232-125.312-49.9456 4.5184 49.7152 217.3184z" fill="#FFFFFF" p-id="2244"></path></svg>