<?xml version="1.0" standalone="no"?><!DOCTYPE svg PUBLIC "-//W3C//DTD SVG 1.1//EN" "http://www.w3.org/Graphics/SVG/1.1/DTD/svg11.dtd"><svg t="1590399646278" class="icon" viewBox="0 0 1024 1024" version="1.1" xmlns="http://www.w3.org/2000/svg" p-id="2362" xmlns:xlink="http://www.w3.org/1999/xlink" width="200" height="200"><defs><style type="text/css"></style></defs><path d="M702.2336 422.144H887.552v-99.6608H702.2336z" fill="#A9A9A9" p-id="2363"></path><path d="M140.8 153.6m12.8 0l729.6 0q12.8 0 12.8 12.8l0 716.8q0 12.8-12.8 12.8l-729.6 0q-12.8 0-12.8-12.8l0-716.8q0-12.8 12.8-12.8Z" fill="#FFFFFF" p-id="2364"></path><path d="M702.2336 616.7424H887.552V314.112H702.2336z" fill="#EBEBEB" p-id="2365"></path><path d="M239.8336 267.2384h308.8256H239.8336z" fill="#FFFFFF" p-id="2366"></path><path d="M548.6592 248.0384v38.4H239.8336v-38.4z" fill="#CCCCCC" p-id="2367"></path><path d="M239.8336 370.2784h181.0816H239.8336z" fill="#FFFFFF" p-id="2368"></path><path d="M420.9152 351.0784v38.4H239.8336v-38.4z" fill="#CCCCCC" p-id="2369"></path><path d="M239.8336 473.3056h308.8256H239.8336z" fill="#FFFFFF" p-id="2370"></path><path d="M548.6592 454.1056v38.4H239.8336v-38.4z" fill="#CCCCCC" p-id="2371"></path><path d="M239.8336 576.3456h181.0816H239.8336z" fill="#FFFFFF" p-id="2372"></path><path d="M420.9152 557.1456v38.4H239.8336v-38.4z" fill="#CCCCCC" p-id="2373"></path><path d="M239.8336 679.3856h308.8256H239.8336z" fill="#FFFFFF" p-id="2374"></path><path d="M548.6592 660.1856v38.4H239.8336v-38.4z" fill="#CCCCCC" p-id="2375"></path><path d="M239.8336 782.4128h308.8256H239.8336z" fill="#FFFFFF" p-id="2376"></path><path d="M548.6592 763.2128v38.4H239.8336v-38.4z" fill="#CCCCCC" p-id="2377"></path><path d="M793.8688 265.1008a23.168 23.168 0 1 0-0.0256-46.336 23.168 23.168 0 0 0 0.0256 46.336M793.8688 784.5504l0 0" fill="#A9A9A9" p-id="2378"></path><path d="M697.7152 148.608v755.392" fill="#FFFFFF" p-id="2379"></path><path d="M707.3152 148.608v755.392h-19.2V148.608z" fill="#CCCCCC" p-id="2380"></path><path d="M866.1248 140.8H164.2752A36.288 36.288 0 0 0 128 177.0752V872.576a36.288 36.288 0 0 0 36.2752 36.2752h701.8496A36.2752 36.2752 0 0 0 902.4 872.576V177.0752A36.2752 36.2752 0 0 0 866.1248 140.8zM164.2752 160h701.8496c9.4336 0 17.0752 7.6544 17.0752 17.0752V872.576c0 9.4336-7.6416 17.0752-17.0752 17.0752H164.2752A17.088 17.088 0 0 1 147.2 872.576V177.0752c0-9.4208 7.6544-17.0752 17.0752-17.0752z" fill="#CCCCCC" p-id="2381"></path></svg>